<?xml version="1.0" standalone="no"?>
<!DOCTYPE svg PUBLIC "-//W3C//DTD SVG 20010904//EN"
 "http://www.w3.org/TR/2001/REC-SVG-20010904/DTD/svg10.dtd">
<svg version="1.0" xmlns="http://www.w3.org/2000/svg"
 width="2048.000000pt" height="2048.000000pt" viewBox="0 0 2048.000000 2048.000000"
 preserveAspectRatio="xMidYMid meet">
<metadata>
Created by potrace 1.14, written by Peter Selinger 2001-2017
</metadata>
<g transform="translate(0.000000,2048.000000) scale(0.100000,-0.100000)"
fill="#000000" stroke="none">
<path d="M9520 15245 l0 -1355 -725 0 -725 0 0 -930 0 -930 725 0 725 0 0
-185 0 -185 -725 0 -725 0 0 -245 0 -245 -725 0 -725 0 0 -930 0 -930 725 0
725 0 0 -245 0 -245 725 0 725 0 0 -865 0 -865 -725 0 -725 0 0 -680 0 -680
-3615 0 -3615 0 0 -925 0 -925 9400 0 9400 0 0 925 0 925 -3615 0 -3615 0 0
680 0 680 -725 0 -725 0 0 865 0 865 725 0 725 0 0 245 0 245 725 0 725 0 0
930 0 930 -725 0 -725 0 0 245 0 245 -725 0 -725 0 0 185 0 185 725 0 725 0 0
930 0 930 -725 0 -725 0 0 1355 0 1355 -720 0 -720 0 0 -1355z"/>
</g>
</svg>
